<?xml version="1.0" standalone="no"?><!DOCTYPE svg PUBLIC "-//W3C//DTD SVG 1.1//EN" "http://www.w3.org/Graphics/SVG/1.1/DTD/svg11.dtd"><svg t="1702174690994" class="icon" viewBox="0 0 1024 1024" version="1.1" xmlns="http://www.w3.org/2000/svg" p-id="5491" xmlns:xlink="http://www.w3.org/1999/xlink" width="40" height="40"><path d="M886.72 568.32a109.76 109.76 0 0 0 0-112.96A1011.84 1011.84 0 0 0 576 143.68a109.76 109.76 0 1 0-112.96 188.16A748.48 748.48 0 0 1 533.76 384l-317.12 24.64a103.04 103.04 0 0 0 0 205.76l320 24.96a599.36 599.36 0 0 1-73.28 52.48A109.76 109.76 0 1 0 576 880.32a1011.84 1011.84 0 0 0 310.72-312z" fill="#2c2c2c" p-id="5492"></path></svg>