<svg width="1341" height="1022" viewBox="0 0 1341 1022" fill="none" xmlns="http://www.w3.org/2000/svg">
<path d="M60.072 106.577C211.503 -142.496 477.204 125.668 768.072 106.577C928.774 96.0293 1031.81 -25.0055 1176.07 46.5768C1358.09 136.893 1247.8 499.959 1197.27 639.533C1186.1 670.4 1200.23 705.183 1230.29 718.379L1240.44 722.835C1268.33 735.081 1262.33 776.294 1232.1 780.073L1165.62 788.382C1154.17 789.814 1143.41 794.504 1134.4 801.733C1102.9 827.032 1025.6 886.576 996.072 886.576C796.072 886.576 870.458 818.577 672.072 818.577C473.686 818.577 404.45 935.337 256.072 866.576C96.4995 792.627 48.0719 606.578 24.0719 480.577C0.0719185 354.576 -27.977 251.399 60.072 106.577Z" fill="#F1F1F1"/>
<path d="M231.424 331.578L213.472 267.546H230.464L241.696 317.274H239.104L253.504 267.546H265.504L280.192 317.946H277.312L288.64 267.546H305.632L287.68 331.578H272.32L258.208 285.498H260.992L246.784 331.578H231.424ZM331.549 333.018C326.685 333.018 322.365 332.026 318.589 330.042C314.877 327.994 311.965 325.114 309.853 321.402C307.805 317.626 306.781 313.146 306.781 307.962C306.781 299.514 308.861 292.986 313.021 288.378C317.245 283.706 323.261 281.37 331.069 281.37C336.445 281.37 340.765 282.522 344.029 284.826C347.357 287.13 349.789 290.49 351.325 294.906C352.861 299.322 353.597 304.698 353.533 311.034H316.573L315.037 301.914H341.725L339.613 306.426C339.549 301.242 338.813 297.594 337.405 295.482C335.997 293.37 333.693 292.314 330.493 292.314C328.701 292.314 327.069 292.762 325.597 293.658C324.189 294.554 323.069 296.058 322.237 298.17C321.469 300.218 321.085 303.066 321.085 306.714C321.085 311.322 322.173 314.874 324.349 317.37C326.589 319.866 330.141 321.114 335.005 321.114C336.797 321.114 338.557 320.922 340.285 320.538C342.077 320.09 343.741 319.578 345.277 319.002C346.813 318.426 348.125 317.914 349.213 317.466V329.754C346.909 330.714 344.317 331.482 341.437 332.058C338.621 332.698 335.325 333.018 331.549 333.018ZM377.679 331.578H363.471V264.666H377.679V331.578ZM413.129 332.826C409.673 332.826 406.409 332.314 403.337 331.29C400.265 330.266 397.545 328.73 395.177 326.682C392.809 324.634 390.953 322.042 389.609 318.906C388.265 315.77 387.593 312.122 387.593 307.962C387.593 303.546 388.233 299.706 389.513 296.442C390.793 293.114 392.553 290.362 394.793 288.186C397.097 286.01 399.785 284.378 402.857 283.29C405.929 282.202 409.321 281.658 413.033 281.658C415.657 281.658 418.345 281.946 421.097 282.522C423.913 283.034 426.377 283.77 428.489 284.73V297.018C426.249 295.994 424.041 295.162 421.865 294.522C419.753 293.818 417.577 293.466 415.337 293.466C411.305 293.466 408.041 294.49 405.545 296.538C403.113 298.522 401.897 301.786 401.897 306.33C401.897 311.13 402.985 314.746 405.161 317.178C407.337 319.61 410.953 320.826 416.009 320.826C418.377 320.826 420.649 320.41 422.825 319.578C425.065 318.746 426.985 317.882 428.585 316.986V329.178C426.345 330.33 424.009 331.226 421.577 331.866C419.145 332.506 416.329 332.826 413.129 332.826ZM460.453 333.018C452.261 333.018 446.085 330.842 441.925 326.49C437.829 322.074 435.781 315.61 435.781 307.098C435.781 297.946 437.861 291.386 442.021 287.418C446.245 283.386 452.389 281.37 460.453 281.37C465.893 281.37 470.437 282.298 474.085 284.154C477.797 285.946 480.581 288.73 482.437 292.506C484.357 296.282 485.317 301.146 485.317 307.098C485.317 315.61 483.173 322.074 478.885 326.49C474.597 330.842 468.453 333.018 460.453 333.018ZM460.453 321.594C462.821 321.594 464.773 321.05 466.309 319.962C467.909 318.81 469.093 317.178 469.861 315.066C470.693 312.89 471.109 310.234 471.109 307.098C471.109 303.514 470.693 300.698 469.861 298.65C469.093 296.538 467.909 295.034 466.309 294.138C464.709 293.178 462.757 292.698 460.453 292.698C458.021 292.698 456.037 293.178 454.501 294.138C452.965 295.098 451.813 296.634 451.045 298.746C450.341 300.794 449.989 303.578 449.989 307.098C449.989 311.962 450.821 315.61 452.485 318.042C454.213 320.41 456.869 321.594 460.453 321.594ZM540.31 298.938V331.578H526.006V301.818C526.006 300.602 525.814 299.482 525.43 298.458C525.11 297.434 524.598 296.57 523.894 295.866C523.19 295.098 522.23 294.522 521.014 294.138C519.798 293.69 518.326 293.466 516.598 293.466C515.126 293.466 513.75 293.658 512.47 294.042C511.254 294.362 510.262 294.714 509.494 295.098V331.578H495.19V287.13C496.406 286.49 498.006 285.85 499.99 285.21C501.974 284.506 504.15 283.898 506.518 283.386C508.886 282.874 511.254 282.458 513.622 282.138C516.054 281.818 518.294 281.658 520.342 281.658C524.694 281.658 528.342 282.234 531.286 283.386C534.294 284.474 536.534 286.266 538.006 288.762C539.542 291.258 540.31 294.65 540.31 298.938ZM525.622 290.394C527.606 288.666 530.006 287.162 532.822 285.882C535.638 284.538 538.614 283.514 541.75 282.81C544.886 282.042 547.798 281.658 550.486 281.658C554.838 281.658 558.486 282.234 561.43 283.386C564.438 284.474 566.678 286.266 568.15 288.762C569.686 291.258 570.454 294.65 570.454 298.938V331.578H556.15V301.818C556.15 300.602 555.958 299.482 555.574 298.458C555.254 297.434 554.742 296.57 554.038 295.866C553.334 295.098 552.374 294.522 551.158 294.138C549.942 293.69 548.47 293.466 546.742 293.466C545.27 293.466 543.894 293.69 542.614 294.138C541.398 294.522 540.406 295.034 539.638 295.674L525.622 290.394ZM605.111 333.018C600.247 333.018 595.927 332.026 592.151 330.042C588.439 327.994 585.527 325.114 583.415 321.402C581.367 317.626 580.343 313.146 580.343 307.962C580.343 299.514 582.423 292.986 586.583 288.378C590.807 283.706 596.823 281.37 604.631 281.37C610.007 281.37 614.327 282.522 617.591 284.826C620.919 287.13 623.351 290.49 624.887 294.906C626.423 299.322 627.159 304.698 627.095 311.034H590.135L588.599 301.914H615.287L613.175 306.426C613.111 301.242 612.375 297.594 610.967 295.482C609.559 293.37 607.255 292.314 604.055 292.314C602.263 292.314 600.631 292.762 599.159 293.658C597.751 294.554 596.631 296.058 595.799 298.17C595.031 300.218 594.647 303.066 594.647 306.714C594.647 311.322 595.735 314.874 597.911 317.37C600.151 319.866 603.703 321.114 608.567 321.114C610.359 321.114 612.119 320.922 613.847 320.538C615.639 320.09 617.303 319.578 618.839 319.002C620.375 318.426 621.687 317.914 622.775 317.466V329.754C620.471 330.714 617.879 331.482 614.999 332.058C612.183 332.698 608.887 333.018 605.111 333.018ZM637.801 342.33L644.905 323.514H656.617L647.785 342.33H637.801ZM723.429 333.018C722.469 333.018 721.061 332.922 719.205 332.73C717.349 332.538 715.429 332.122 713.445 331.482C711.461 330.778 709.765 329.722 708.357 328.314L711.237 323.802V348.954H697.221V293.274C697.221 291.162 697.829 289.37 699.045 287.898C700.261 286.426 701.925 285.21 704.037 284.25C706.149 283.29 708.581 282.586 711.333 282.138C714.149 281.626 717.157 281.37 720.357 281.37C725.221 281.37 729.477 282.202 733.125 283.866C736.837 285.466 739.717 288.186 741.765 292.026C743.877 295.866 744.933 301.114 744.933 307.77C744.933 312.762 744.069 317.178 742.341 321.018C740.613 324.794 738.149 327.738 734.949 329.85C731.813 331.962 727.973 333.018 723.429 333.018ZM719.205 321.498C721.765 321.498 723.877 321.05 725.541 320.154C727.205 319.258 728.453 317.786 729.285 315.738C730.181 313.626 730.629 310.81 730.629 307.29C730.629 304.346 730.309 301.85 729.669 299.802C729.029 297.754 727.909 296.186 726.309 295.098C724.773 293.946 722.597 293.37 719.781 293.37C716.709 293.37 714.501 293.69 713.157 294.33C711.877 294.906 711.237 295.674 711.237 296.634V319.482C712.453 320.186 713.797 320.698 715.269 321.018C716.741 321.338 718.053 321.498 719.205 321.498ZM769.085 331.578H754.877V264.666H769.085V331.578ZM803.767 333.018C798.903 333.018 794.583 332.026 790.807 330.042C787.095 327.994 784.183 325.114 782.071 321.402C780.023 317.626 778.999 313.146 778.999 307.962C778.999 299.514 781.079 292.986 785.239 288.378C789.463 283.706 795.479 281.37 803.287 281.37C808.663 281.37 812.983 282.522 816.247 284.826C819.575 287.13 822.007 290.49 823.543 294.906C825.079 299.322 825.815 304.698 825.751 311.034H788.791L787.255 301.914H813.943L811.831 306.426C811.767 301.242 811.031 297.594 809.623 295.482C808.215 293.37 805.911 292.314 802.711 292.314C800.919 292.314 799.287 292.762 797.815 293.658C796.407 294.554 795.287 296.058 794.455 298.17C793.687 300.218 793.303 303.066 793.303 306.714C793.303 311.322 794.391 314.874 796.567 317.37C798.807 319.866 802.359 321.114 807.223 321.114C809.015 321.114 810.775 320.922 812.503 320.538C814.295 320.09 815.959 319.578 817.495 319.002C819.031 318.426 820.343 317.914 821.431 317.466V329.754C819.127 330.714 816.535 331.482 813.655 332.058C810.839 332.698 807.543 333.018 803.767 333.018ZM854.41 333.018C851.466 333.018 848.682 332.73 846.058 332.154C843.498 331.642 841.226 330.778 839.242 329.562C837.322 328.282 835.818 326.586 834.73 324.474C833.642 322.298 833.098 319.61 833.098 316.41C833.098 313.402 833.706 310.778 834.922 308.538C836.202 306.298 838.122 304.57 840.682 303.354C843.242 302.138 846.474 301.53 850.378 301.53C852.554 301.53 854.666 301.754 856.714 302.202C858.762 302.65 860.586 303.258 862.186 304.026C863.85 304.794 865.162 305.626 866.122 306.522L866.698 313.434C865.418 312.666 863.882 312.058 862.09 311.61C860.298 311.162 858.378 310.938 856.33 310.938C853.194 310.938 850.89 311.418 849.418 312.378C848.01 313.274 847.306 314.714 847.306 316.698C847.306 317.914 847.658 319.002 848.362 319.962C849.066 320.922 849.994 321.658 851.146 322.17C852.362 322.682 853.61 322.938 854.89 322.938C858.154 322.938 860.426 322.714 861.706 322.266C863.05 321.818 863.722 320.922 863.722 319.578V301.722C863.722 298.778 862.762 296.666 860.842 295.386C858.986 294.042 856.33 293.37 852.874 293.37C850.058 293.37 847.21 293.882 844.33 294.906C841.514 295.866 839.21 297.05 837.418 298.458V285.786C839.082 284.762 841.642 283.802 845.098 282.906C848.618 282.01 852.554 281.562 856.906 281.562C858.442 281.562 860.138 281.69 861.994 281.946C863.85 282.202 865.706 282.682 867.562 283.386C869.418 284.026 871.114 284.986 872.65 286.266C874.25 287.546 875.53 289.178 876.49 291.162C877.45 293.146 877.93 295.61 877.93 298.554L877.834 321.498C877.834 324.25 876.906 326.49 875.05 328.218C873.194 329.882 870.506 331.098 866.986 331.866C863.53 332.634 859.338 333.018 854.41 333.018ZM905.027 333.018C901.571 333.018 898.595 332.634 896.099 331.866C893.667 331.162 891.363 330.362 889.187 329.466V316.89C890.531 317.786 892.035 318.714 893.699 319.674C895.363 320.57 897.187 321.306 899.171 321.882C901.219 322.458 903.363 322.746 905.603 322.746C907.907 322.746 909.507 322.362 910.403 321.594C911.363 320.762 911.843 319.77 911.843 318.618C911.843 317.53 911.363 316.666 910.403 316.026C909.443 315.322 908.195 314.746 906.659 314.298C905.123 313.85 903.491 313.434 901.763 313.05C900.227 312.73 898.691 312.25 897.155 311.61C895.619 310.906 894.243 309.978 893.027 308.826C891.811 307.674 890.819 306.266 890.051 304.602C889.347 302.874 888.995 300.794 888.995 298.362C888.995 295.226 889.603 292.634 890.819 290.586C892.035 288.474 893.635 286.778 895.619 285.498C897.603 284.218 899.747 283.322 902.051 282.81C904.355 282.234 906.595 281.978 908.771 282.042C912.739 282.17 915.875 282.618 918.179 283.386C920.547 284.09 922.691 285.018 924.611 286.17V297.402C922.435 296.186 920.259 295.066 918.083 294.042C915.971 292.954 913.539 292.41 910.787 292.41C908.291 292.41 906.499 292.794 905.411 293.562C904.323 294.33 903.779 295.354 903.779 296.634C903.779 297.85 904.131 298.81 904.835 299.514C905.603 300.218 906.595 300.794 907.811 301.242C909.027 301.626 910.371 302.01 911.843 302.394C913.443 302.778 915.075 303.258 916.739 303.834C918.467 304.346 920.067 305.114 921.539 306.138C923.075 307.098 924.291 308.474 925.187 310.266C926.147 311.994 926.627 314.298 926.627 317.178C926.563 321.082 925.507 324.218 923.459 326.586C921.411 328.89 918.755 330.554 915.491 331.578C912.291 332.538 908.803 333.018 905.027 333.018ZM958.924 333.018C954.06 333.018 949.74 332.026 945.964 330.042C942.252 327.994 939.34 325.114 937.228 321.402C935.18 317.626 934.156 313.146 934.156 307.962C934.156 299.514 936.236 292.986 940.396 288.378C944.62 283.706 950.636 281.37 958.444 281.37C963.82 281.37 968.14 282.522 971.404 284.826C974.732 287.13 977.164 290.49 978.7 294.906C980.236 299.322 980.972 304.698 980.908 311.034H943.948L942.412 301.914H969.1L966.988 306.426C966.924 301.242 966.188 297.594 964.78 295.482C963.372 293.37 961.068 292.314 957.868 292.314C956.076 292.314 954.444 292.762 952.972 293.658C951.564 294.554 950.444 296.058 949.612 298.17C948.844 300.218 948.46 303.066 948.46 306.714C948.46 311.322 949.548 314.874 951.724 317.37C953.964 319.866 957.516 321.114 962.38 321.114C964.172 321.114 965.932 320.922 967.66 320.538C969.452 320.09 971.116 319.578 972.652 319.002C974.188 318.426 975.5 317.914 976.588 317.466V329.754C974.284 330.714 971.692 331.482 968.812 332.058C965.996 332.698 962.7 333.018 958.924 333.018ZM231.808 446.018C228.352 446.018 225.376 445.634 222.88 444.866C220.448 444.162 218.144 443.362 215.968 442.466V429.89C217.312 430.786 218.816 431.714 220.48 432.674C222.144 433.57 223.968 434.306 225.952 434.882C228 435.458 230.144 435.746 232.384 435.746C234.688 435.746 236.288 435.362 237.184 434.594C238.144 433.762 238.624 432.77 238.624 431.618C238.624 430.53 238.144 429.666 237.184 429.026C236.224 428.322 234.976 427.746 233.44 427.298C231.904 426.85 230.272 426.434 228.544 426.05C227.008 425.73 225.472 425.25 223.936 424.61C222.4 423.906 221.024 422.978 219.808 421.826C218.592 420.674 217.6 419.266 216.832 417.602C216.128 415.874 215.776 413.794 215.776 411.362C215.776 408.226 216.384 405.634 217.6 403.586C218.816 401.474 220.416 399.778 222.4 398.498C224.384 397.218 226.528 396.322 228.832 395.81C231.136 395.234 233.376 394.978 235.552 395.042C239.52 395.17 242.656 395.618 244.96 396.386C247.328 397.09 249.472 398.018 251.392 399.17V410.402C249.216 409.186 247.04 408.066 244.864 407.042C242.752 405.954 240.32 405.41 237.568 405.41C235.072 405.41 233.28 405.794 232.192 406.562C231.104 407.33 230.56 408.354 230.56 409.634C230.56 410.85 230.912 411.81 231.616 412.514C232.384 413.218 233.376 413.794 234.592 414.242C235.808 414.626 237.152 415.01 238.624 415.394C240.224 415.778 241.856 416.258 243.52 416.834C245.248 417.346 246.848 418.114 248.32 419.138C249.856 420.098 251.072 421.474 251.968 423.266C252.928 424.994 253.408 427.298 253.408 430.178C253.344 434.082 252.288 437.218 250.24 439.586C248.192 441.89 245.536 443.554 242.272 444.578C239.072 445.538 235.584 446.018 231.808 446.018ZM285.705 446.018C280.841 446.018 276.521 445.026 272.745 443.042C269.033 440.994 266.121 438.114 264.009 434.402C261.961 430.626 260.937 426.146 260.937 420.962C260.937 412.514 263.017 405.986 267.177 401.378C271.401 396.706 277.417 394.37 285.225 394.37C290.601 394.37 294.921 395.522 298.185 397.826C301.513 400.13 303.945 403.49 305.481 407.906C307.017 412.322 307.753 417.698 307.689 424.034H270.729L269.193 414.914H295.881L293.769 419.426C293.705 414.242 292.969 410.594 291.561 408.482C290.153 406.37 287.849 405.314 284.649 405.314C282.857 405.314 281.225 405.762 279.753 406.658C278.345 407.554 277.225 409.058 276.393 411.17C275.625 413.218 275.241 416.066 275.241 419.714C275.241 424.322 276.329 427.874 278.505 430.37C280.745 432.866 284.297 434.114 289.161 434.114C290.953 434.114 292.713 433.922 294.441 433.538C296.233 433.09 297.897 432.578 299.433 432.002C300.969 431.426 302.281 430.914 303.369 430.466V442.754C301.065 443.714 298.473 444.482 295.593 445.058C292.777 445.698 289.481 446.018 285.705 446.018ZM331.835 444.578H317.627V377.666H331.835V444.578ZM366.517 446.018C361.653 446.018 357.333 445.026 353.557 443.042C349.845 440.994 346.933 438.114 344.821 434.402C342.773 430.626 341.749 426.146 341.749 420.962C341.749 412.514 343.829 405.986 347.989 401.378C352.213 396.706 358.229 394.37 366.037 394.37C371.413 394.37 375.733 395.522 378.997 397.826C382.325 400.13 384.757 403.49 386.293 407.906C387.829 412.322 388.565 417.698 388.501 424.034H351.541L350.005 414.914H376.693L374.581 419.426C374.517 414.242 373.781 410.594 372.373 408.482C370.965 406.37 368.661 405.314 365.461 405.314C363.669 405.314 362.037 405.762 360.565 406.658C359.157 407.554 358.037 409.058 357.205 411.17C356.437 413.218 356.053 416.066 356.053 419.714C356.053 424.322 357.141 427.874 359.317 430.37C361.557 432.866 365.109 434.114 369.973 434.114C371.765 434.114 373.525 433.922 375.253 433.538C377.045 433.09 378.709 432.578 380.245 432.002C381.781 431.426 383.093 430.914 384.181 430.466V442.754C381.877 443.714 379.285 444.482 376.405 445.058C373.589 445.698 370.293 446.018 366.517 446.018ZM421.192 445.826C417.736 445.826 414.472 445.314 411.4 444.29C408.328 443.266 405.608 441.73 403.24 439.682C400.872 437.634 399.016 435.042 397.672 431.906C396.328 428.77 395.656 425.122 395.656 420.962C395.656 416.546 396.296 412.706 397.576 409.442C398.856 406.114 400.616 403.362 402.856 401.186C405.16 399.01 407.848 397.378 410.92 396.29C413.992 395.202 417.384 394.658 421.096 394.658C423.72 394.658 426.408 394.946 429.16 395.522C431.976 396.034 434.44 396.77 436.552 397.73V410.018C434.312 408.994 432.104 408.162 429.928 407.522C427.816 406.818 425.64 406.466 423.4 406.466C419.368 406.466 416.104 407.49 413.608 409.538C411.176 411.522 409.96 414.786 409.96 419.33C409.96 424.13 411.048 427.746 413.224 430.178C415.4 432.61 419.016 433.826 424.072 433.826C426.44 433.826 428.712 433.41 430.888 432.578C433.128 431.746 435.048 430.882 436.648 429.986V442.178C434.408 443.33 432.072 444.226 429.64 444.866C427.208 445.506 424.392 445.826 421.192 445.826ZM466.499 446.498C460.867 446.498 456.675 445.186 453.923 442.562C451.171 439.874 449.795 436.098 449.795 431.234V406.946H442.691V396.002H449.795V382.658H464.771V396.002H475.427V406.946H464.771V429.41C464.771 431.074 465.123 432.322 465.827 433.154C466.531 433.922 467.715 434.306 469.379 434.306C470.339 434.306 471.395 434.114 472.547 433.73C473.699 433.346 474.659 432.866 475.427 432.29V444.578C474.083 445.282 472.611 445.762 471.011 446.018C469.475 446.338 467.971 446.498 466.499 446.498ZM534.703 446.018C526.511 446.018 520.335 443.842 516.175 439.49C512.079 435.074 510.031 428.61 510.031 420.098C510.031 410.946 512.111 404.386 516.271 400.418C520.495 396.386 526.639 394.37 534.703 394.37C540.143 394.37 544.687 395.298 548.335 397.154C552.047 398.946 554.831 401.73 556.687 405.506C558.607 409.282 559.567 414.146 559.567 420.098C559.567 428.61 557.423 435.074 553.135 439.49C548.847 443.842 542.703 446.018 534.703 446.018ZM534.703 434.594C537.071 434.594 539.023 434.05 540.559 432.962C542.159 431.81 543.343 430.178 544.111 428.066C544.943 425.89 545.359 423.234 545.359 420.098C545.359 416.514 544.943 413.698 544.111 411.65C543.343 409.538 542.159 408.034 540.559 407.138C538.959 406.178 537.007 405.698 534.703 405.698C532.271 405.698 530.287 406.178 528.751 407.138C527.215 408.098 526.063 409.634 525.295 411.746C524.591 413.794 524.239 416.578 524.239 420.098C524.239 424.962 525.071 428.61 526.735 431.042C528.463 433.41 531.119 434.594 534.703 434.594ZM569.44 400.13C570.656 399.49 572.256 398.85 574.24 398.21C576.224 397.506 578.4 396.898 580.768 396.386C583.136 395.874 585.504 395.458 587.872 395.138C590.304 394.818 592.544 394.658 594.592 394.658C598.944 394.658 602.656 395.234 605.728 396.386C608.8 397.474 611.136 399.266 612.736 401.762C614.4 404.258 615.232 407.65 615.232 411.938V444.578H600.928V414.818C600.928 413.602 600.736 412.482 600.352 411.458C600.032 410.434 599.52 409.57 598.816 408.866C598.112 408.098 597.152 407.522 595.936 407.138C594.72 406.69 593.248 406.466 591.52 406.466C590.048 406.466 588.576 406.658 587.104 407.042C585.632 407.362 584.512 407.714 583.744 408.098V444.578H569.44V400.13ZM649.924 446.018C645.06 446.018 640.74 445.026 636.964 443.042C633.252 440.994 630.34 438.114 628.228 434.402C626.18 430.626 625.156 426.146 625.156 420.962C625.156 412.514 627.236 405.986 631.396 401.378C635.62 396.706 641.636 394.37 649.444 394.37C654.82 394.37 659.14 395.522 662.404 397.826C665.732 400.13 668.164 403.49 669.7 407.906C671.236 412.322 671.972 417.698 671.908 424.034H634.948L633.412 414.914H660.1L657.988 419.426C657.924 414.242 657.188 410.594 655.78 408.482C654.372 406.37 652.068 405.314 648.868 405.314C647.076 405.314 645.444 405.762 643.972 406.658C642.564 407.554 641.444 409.058 640.612 411.17C639.844 413.218 639.46 416.066 639.46 419.714C639.46 424.322 640.548 427.874 642.724 430.37C644.964 432.866 648.516 434.114 653.38 434.114C655.172 434.114 656.932 433.922 658.66 433.538C660.452 433.09 662.116 432.578 663.652 432.002C665.188 431.426 666.5 430.914 667.588 430.466V442.754C665.284 443.714 662.692 444.482 659.812 445.058C656.996 445.698 653.7 446.018 649.924 446.018ZM231.616 557.578H217.408V490.666H231.616V557.578ZM266.299 559.018C261.435 559.018 257.115 558.026 253.339 556.042C249.627 553.994 246.715 551.114 244.603 547.402C242.555 543.626 241.531 539.146 241.531 533.962C241.531 525.514 243.611 518.986 247.771 514.378C251.995 509.706 258.011 507.37 265.819 507.37C271.195 507.37 275.515 508.522 278.779 510.826C282.107 513.13 284.539 516.49 286.075 520.906C287.611 525.322 288.347 530.698 288.283 537.034H251.323L249.787 527.914H276.475L274.363 532.426C274.299 527.242 273.563 523.594 272.155 521.482C270.747 519.37 268.443 518.314 265.243 518.314C263.451 518.314 261.819 518.762 260.347 519.658C258.939 520.554 257.819 522.058 256.987 524.17C256.219 526.218 255.835 529.066 255.835 532.714C255.835 537.322 256.923 540.874 259.099 543.37C261.339 545.866 264.891 547.114 269.755 547.114C271.547 547.114 273.307 546.922 275.035 546.538C276.827 546.09 278.491 545.578 280.027 545.002C281.563 544.426 282.875 543.914 283.963 543.466V555.754C281.659 556.714 279.067 557.482 276.187 558.058C273.371 558.698 270.075 559.018 266.299 559.018ZM316.941 559.018C313.997 559.018 311.213 558.73 308.589 558.154C306.029 557.642 303.757 556.778 301.773 555.562C299.853 554.282 298.349 552.586 297.261 550.474C296.173 548.298 295.629 545.61 295.629 542.41C295.629 539.402 296.237 536.778 297.453 534.538C298.733 532.298 300.653 530.57 303.213 529.354C305.773 528.138 309.005 527.53 312.909 527.53C315.085 527.53 317.197 527.754 319.245 528.202C321.293 528.65 323.117 529.258 324.717 530.026C326.381 530.794 327.693 531.626 328.653 532.522L329.229 539.434C327.949 538.666 326.413 538.058 324.621 537.61C322.829 537.162 320.909 536.938 318.861 536.938C315.725 536.938 313.421 537.418 311.949 538.378C310.541 539.274 309.837 540.714 309.837 542.698C309.837 543.914 310.189 545.002 310.893 545.962C311.597 546.922 312.525 547.658 313.677 548.17C314.893 548.682 316.141 548.938 317.421 548.938C320.685 548.938 322.957 548.714 324.237 548.266C325.581 547.818 326.253 546.922 326.253 545.578V527.722C326.253 524.778 325.293 522.666 323.373 521.386C321.517 520.042 318.861 519.37 315.405 519.37C312.589 519.37 309.741 519.882 306.861 520.906C304.045 521.866 301.741 523.05 299.949 524.458V511.786C301.613 510.762 304.173 509.802 307.629 508.906C311.149 508.01 315.085 507.562 319.437 507.562C320.973 507.562 322.669 507.69 324.525 507.946C326.381 508.202 328.237 508.682 330.093 509.386C331.949 510.026 333.645 510.986 335.181 512.266C336.781 513.546 338.061 515.178 339.021 517.162C339.981 519.146 340.461 521.61 340.461 524.554L340.365 547.498C340.365 550.25 339.437 552.49 337.581 554.218C335.725 555.882 333.037 557.098 329.517 557.866C326.061 558.634 321.869 559.018 316.941 559.018ZM353.158 557.578V514.09C354.054 513.322 355.654 512.458 357.958 511.498C360.262 510.474 362.886 509.578 365.83 508.81C368.838 507.978 371.846 507.562 374.854 507.562C377.862 507.562 380.23 507.786 381.958 508.234C383.686 508.682 384.998 509.258 385.894 509.962V520.426C384.806 520.17 383.43 519.978 381.766 519.85C380.102 519.722 378.374 519.658 376.582 519.658C374.79 519.594 373.094 519.594 371.494 519.658C369.894 519.722 368.55 519.85 367.462 520.042V557.578H353.158ZM394.221 513.13C395.437 512.49 397.037 511.85 399.021 511.21C401.005 510.506 403.181 509.898 405.549 509.386C407.917 508.874 410.285 508.458 412.653 508.138C415.085 507.818 417.325 507.658 419.373 507.658C423.725 507.658 427.437 508.234 430.509 509.386C433.581 510.474 435.917 512.266 437.517 514.762C439.181 517.258 440.013 520.65 440.013 524.938V557.578H425.709V527.818C425.709 526.602 425.517 525.482 425.133 524.458C424.813 523.434 424.301 522.57 423.597 521.866C422.893 521.098 421.933 520.522 420.717 520.138C419.501 519.69 418.029 519.466 416.301 519.466C414.829 519.466 413.357 519.658 411.885 520.042C410.413 520.362 409.293 520.714 408.525 521.098V557.578H394.221V513.13ZM453.009 557.578V509.674H467.313L467.409 557.578H453.009ZM452.721 502.378V491.338H467.505V502.378H452.721ZM480.19 513.13C481.406 512.49 483.006 511.85 484.99 511.21C486.974 510.506 489.15 509.898 491.518 509.386C493.886 508.874 496.254 508.458 498.622 508.138C501.054 507.818 503.294 507.658 505.342 507.658C509.694 507.658 513.406 508.234 516.478 509.386C519.55 510.474 521.886 512.266 523.486 514.762C525.15 517.258 525.982 520.65 525.982 524.938V557.578H511.678V527.818C511.678 526.602 511.486 525.482 511.102 524.458C510.782 523.434 510.27 522.57 509.566 521.866C508.862 521.098 507.902 520.522 506.686 520.138C505.47 519.69 503.998 519.466 502.27 519.466C500.798 519.466 499.326 519.658 497.854 520.042C496.382 520.362 495.262 520.714 494.494 521.098V557.578H480.19V513.13ZM557.314 559.018C552.898 558.762 549.09 557.738 545.89 555.946C542.754 554.154 540.29 551.53 538.498 548.074C536.77 544.554 535.906 540.138 535.906 534.826C535.906 529.45 536.578 525.002 537.922 521.482C539.266 517.898 541.122 515.114 543.49 513.13C545.922 511.146 548.834 509.738 552.226 508.906C555.618 508.074 559.394 507.658 563.554 507.658C567.586 507.658 571.106 508.17 574.114 509.194C577.122 510.218 579.458 511.69 581.122 513.61C582.786 515.53 583.618 517.898 583.618 520.714V558.154C583.618 561.546 583.074 564.522 581.986 567.082C580.898 569.706 579.266 571.882 577.09 573.61C574.978 575.402 572.386 576.746 569.314 577.642C566.306 578.538 562.818 578.986 558.85 578.986C554.562 578.986 550.882 578.666 547.81 578.026C544.802 577.45 542.498 576.714 540.898 575.818V563.242C541.858 563.626 543.266 564.138 545.122 564.778C546.978 565.418 549.058 565.93 551.362 566.314C553.666 566.762 555.97 566.986 558.274 566.986C561.282 566.986 563.586 566.57 565.186 565.738C566.85 564.906 568.002 563.786 568.642 562.378C569.282 560.97 569.602 559.37 569.602 557.578V549.706L572.386 551.722C571.362 553.194 570.146 554.474 568.738 555.562C567.33 556.65 565.666 557.482 563.746 558.058C561.89 558.698 559.746 559.018 557.314 559.018ZM560.962 548.266C562.626 548.266 564.162 548.106 565.57 547.786C566.978 547.402 568.322 546.858 569.602 546.154V523.882C569.602 522.538 569.218 521.514 568.45 520.81C567.682 520.106 566.722 519.626 565.57 519.37C564.418 519.114 563.202 518.986 561.922 518.986C558.978 518.986 556.642 519.626 554.914 520.906C553.25 522.186 552.034 523.978 551.266 526.282C550.562 528.522 550.21 531.082 550.21 533.962C550.21 538.378 551.202 541.866 553.186 544.426C555.17 546.986 557.762 548.266 560.962 548.266ZM640.751 559.018C636.335 558.762 632.527 557.738 629.327 555.946C626.191 554.154 623.727 551.53 621.935 548.074C620.207 544.554 619.343 540.138 619.343 534.826C619.343 529.45 620.015 525.002 621.359 521.482C622.703 517.898 624.559 515.114 626.927 513.13C629.359 511.146 632.271 509.738 635.663 508.906C639.055 508.074 642.831 507.658 646.991 507.658C651.023 507.658 654.543 508.17 657.551 509.194C660.559 510.218 662.895 511.69 664.559 513.61C666.223 515.53 667.055 517.898 667.055 520.714V558.154C667.055 561.546 666.511 564.522 665.423 567.082C664.335 569.706 662.703 571.882 660.527 573.61C658.415 575.402 655.823 576.746 652.751 577.642C649.743 578.538 646.255 578.986 642.287 578.986C637.999 578.986 634.319 578.666 631.247 578.026C628.239 577.45 625.935 576.714 624.335 575.818V563.242C625.295 563.626 626.703 564.138 628.559 564.778C630.415 565.418 632.495 565.93 634.799 566.314C637.103 566.762 639.407 566.986 641.711 566.986C644.719 566.986 647.023 566.57 648.623 565.738C650.287 564.906 651.439 563.786 652.079 562.378C652.719 560.97 653.039 559.37 653.039 557.578V549.706L655.823 551.722C654.799 553.194 653.583 554.474 652.175 555.562C650.767 556.65 649.103 557.482 647.183 558.058C645.327 558.698 643.183 559.018 640.751 559.018ZM644.399 548.266C646.063 548.266 647.599 548.106 649.007 547.786C650.415 547.402 651.759 546.858 653.039 546.154V523.882C653.039 522.538 652.655 521.514 651.887 520.81C651.119 520.106 650.159 519.626 649.007 519.37C647.855 519.114 646.639 518.986 645.359 518.986C642.415 518.986 640.079 519.626 638.351 520.906C636.687 522.186 635.471 523.978 634.703 526.282C633.999 528.522 633.647 531.082 633.647 533.962C633.647 538.378 634.639 541.866 636.623 544.426C638.607 546.986 641.199 548.266 644.399 548.266ZM700.921 559.018C692.729 559.018 686.553 556.842 682.393 552.49C678.297 548.074 676.249 541.61 676.249 533.098C676.249 523.946 678.329 517.386 682.489 513.418C686.713 509.386 692.857 507.37 700.921 507.37C706.361 507.37 710.905 508.298 714.553 510.154C718.265 511.946 721.049 514.73 722.905 518.506C724.825 522.282 725.785 527.146 725.785 533.098C725.785 541.61 723.641 548.074 719.353 552.49C715.065 556.842 708.921 559.018 700.921 559.018ZM700.921 547.594C703.289 547.594 705.241 547.05 706.777 545.962C708.377 544.81 709.561 543.178 710.329 541.066C711.161 538.89 711.577 536.234 711.577 533.098C711.577 529.514 711.161 526.698 710.329 524.65C709.561 522.538 708.377 521.034 706.777 520.138C705.177 519.178 703.225 518.698 700.921 518.698C698.489 518.698 696.505 519.178 694.969 520.138C693.433 521.098 692.281 522.634 691.513 524.746C690.809 526.794 690.457 529.578 690.457 533.098C690.457 537.962 691.289 541.61 692.953 544.042C694.681 546.41 697.337 547.594 700.921 547.594ZM754.378 559.018C751.434 559.018 748.65 558.73 746.026 558.154C743.466 557.642 741.194 556.778 739.21 555.562C737.29 554.282 735.786 552.586 734.698 550.474C733.61 548.298 733.066 545.61 733.066 542.41C733.066 539.402 733.674 536.778 734.89 534.538C736.17 532.298 738.09 530.57 740.65 529.354C743.21 528.138 746.442 527.53 750.346 527.53C752.522 527.53 754.634 527.754 756.682 528.202C758.73 528.65 760.554 529.258 762.154 530.026C763.818 530.794 765.13 531.626 766.09 532.522L766.666 539.434C765.386 538.666 763.85 538.058 762.058 537.61C760.266 537.162 758.346 536.938 756.298 536.938C753.162 536.938 750.858 537.418 749.386 538.378C747.978 539.274 747.274 540.714 747.274 542.698C747.274 543.914 747.626 545.002 748.33 545.962C749.034 546.922 749.962 547.658 751.114 548.17C752.33 548.682 753.578 548.938 754.858 548.938C758.122 548.938 760.394 548.714 761.674 548.266C763.018 547.818 763.69 546.922 763.69 545.578V527.722C763.69 524.778 762.73 522.666 760.81 521.386C758.954 520.042 756.298 519.37 752.842 519.37C750.026 519.37 747.178 519.882 744.298 520.906C741.482 521.866 739.178 523.05 737.386 524.458V511.786C739.05 510.762 741.61 509.802 745.066 508.906C748.586 508.01 752.522 507.562 756.874 507.562C758.41 507.562 760.106 507.69 761.962 507.946C763.818 508.202 765.674 508.682 767.53 509.386C769.386 510.026 771.082 510.986 772.618 512.266C774.218 513.546 775.498 515.178 776.458 517.162C777.418 519.146 777.898 521.61 777.898 524.554L777.802 547.498C777.802 550.25 776.874 552.49 775.018 554.218C773.162 555.882 770.474 557.098 766.954 557.866C763.498 558.634 759.306 559.018 754.378 559.018ZM804.804 557.578H790.596V490.666H804.804V557.578ZM826.334 539.914L824.702 493.546H838.43L836.702 539.914H826.334ZM825.182 557.578V546.634H837.854V557.578H825.182Z" fill="#8071B0"/>
</svg>
