<svg width="1341" height="889" viewBox="0 0 1341 889" fill="none" xmlns="http://www.w3.org/2000/svg">
<path d="M60.072 106.577C211.503 -142.496 477.204 125.668 768.072 106.577C928.774 96.0293 1031.81 -25.0055 1176.07 46.5768C1358.09 136.893 1247.8 499.959 1197.27 639.533C1186.1 670.4 1200.23 705.183 1230.29 718.379L1240.44 722.835C1268.33 735.081 1262.33 776.294 1232.1 780.073L1165.62 788.382C1154.17 789.814 1143.41 794.504 1134.4 801.733C1102.9 827.032 1025.6 886.576 996.072 886.576C796.072 886.576 870.458 818.577 672.072 818.577C473.686 818.577 404.45 935.337 256.072 866.576C96.4995 792.627 48.0719 606.578 24.0719 480.577C0.0719185 354.576 -27.977 251.399 60.072 106.577Z" fill="#F1F1F1"/>
</svg>
